# xmcd
#
# Track frame offsets: 
#        150
#        11702
#        21450
#        35440
#        46517
#        59492
#        71985
#        81575
#        95370
#        108795
#        120430
#        131605
#        141940
#        151355
#        163387
#        175320
#        189032
#        198762
#        212180
#        222640
#        233210
#        244542
#        256877
#        267707
#        279740
#
# Disc length: 3836 seconds
#
# Revision: 2
# Processed by: cddbd v1.5.2PL0 Copyright (c) Steve Scherf et al.
# Submitted via: ExactAudioCopyFreeDBPlugin 1.0
#
DISCID=760efa19
DTITLE=Various Artist - Herald Records - Volume 1
DYEAR=1995
DGENRE=Oldies
TTITLE0=The Mello-Kings - Tonite-Tonite
TTITLE1=The Debonaires - Darling
TTITLE2=The Nutmegs - Ship of Love
TTITLE3=Smart Tones - Bob O Link
TTITLE4=The Turbans - Congratulations
TTITLE5=The Thrillers - Lizabeth
TTITLE6=The Mello Kings - Chip Chip
TTITLE7=The Rocketeers - Foolish One
TTITLE8=The Turbans - When You Dance
TTITLE9=The Nutmegs - Key To The Kingdom
TTITLE10=The Sunbeams - Tell Me Why
TTITLE11=Little Butchie Saunders - Great Big Heart
TTITLE12=The Mello Kings - Baby Tell Me (Why, Why, Why)
TTITLE13=The Turbans - Sister Sookey
TTITLE14=The Mint Juleps - Bells of Love
TTITLE15=The 5 Willows - Lay Your Head On My Shoulder
TTITLE16=The Nutmegs - My Story
TTITLE17=The Heralds - Eternal Love
TTITLE18=The Turbans - It Was A Night Like This
TTITLE19=The Mello Kings - Our Love Is Beautiful
TTITLE20=Maurice Williams and The Zodiacs - We're Lovers
TTITLE21=The Nutmegs - Make Me Lose My Mind
TTITLE22=The 5 Willows - So Help Me
TTITLE23=Little Butchie Saunders - Rock and Roll Indian Dance
TTITLE24=Maurice Williams and The Zodiacs - The Winds
EXTD=
EXTT0=
EXTT1=
EXTT2=
EXTT3=
EXTT4=
EXTT5=
EXTT6=
EXTT7=
EXTT8=
EXTT9=
EXTT10=
EXTT11=
EXTT12=
EXTT13=
EXTT14=
EXTT15=
EXTT16=
EXTT17=
EXTT18=
EXTT19=
EXTT20=
EXTT21=
EXTT22=
EXTT23=
EXTT24=
PLAYORDER=
